#am4


#0 @0 v220 y10 w220 t25

b16a+16b16r16>d8g8f+8e8d8c8
<b2>d8r1^2^8
<f+4e8r1^2^4^8
f+4e8r2^4^8
f+4
e8r1^2^8
f+4
e8r1^2^8
f+4
e8r1^2^8
f+4
e8r1^2^8
f+4
e8r2^4^8
>d1
<g8r1^1^1^1^1^1^1^1^2^4^8
<g1
a1
g1
a4<a4b4>c+4
>a1
>a1
>a1^2
r1^2^4
o5f+4e8r1^2^4^8
f+4e8r2^4^8
f+4
e8r1^2^8
f+4
e8r1^2^8
f+4
e8r1^2^8
f+4
e8r1^2^8
f+4
e8r2^4^8
>d1
<g8r1^1^1^1^1^1^1^1^2^4^8
<g1
a1
g1
a4<a4b4>c+4
>a1
>a1
;


#1 @0 v220 y10

<g2f+8r1^2^8
d4c8r1^2^4^8
d4c8r2^4^8
d4
c8r1^2^8
d4
c8r1^2^8
d4
c8r1^2^8
d4
c8r1^2^8
d4
c8r2^4^8
d1
<b4r1^1^1^1^1^1^1^1^1^1^1^1^1^1^1^1^1^1
>d4c8r1^2^4^8
d4c8r2^4^8
d4
c8r1^2^8
d4
c8r1^2^8
d4
c8r1^2^8
d4
c8r1^2^8
d4
c8r2^4^8
d1
<b4;


#2 @0 v220 y10

r1^2
<d2
g16;


#3 @0 v220 y10

r1^1^8
b16b16b8b8a8a8b8b8
>c8c8<a8a8g8g8f+8r4
b16b16b8b8a8a8b8b8
>c8c8<a8a8g8g8f+8r4
d8r8d8c8r2^4^8
>d8d8c8r4
<d8r8d8c8r2^4^8
>d8d8c8r4
<d8r8d8c8r2^4^8
>d8d8c8r4
<d8r8d8c8r2^4^8
>d8d8c8r4
<d8r8d8c8r2^4^8
>d8d8c8r1^1^8
o4d8o6c+8c+8<b8b8r2^4^8
f+8f+8e8o3a8
>d8o6c+8c+8<b8b8r2^4^8
f+8f+8e8o3a8
>d8o6c+8c+8<b8b8r2^4^8
f+8f+8e8<a8
a8>f+8f+8r8<a8>c+8c+8r8
<a8>f+8f+8r8<a8>c+8c+8r8
>d8d8d8d8r8<b8r8b8
a8r8>c+8r2^8
d8d8d8d8r8<b8r8b8
>c+8r8e8r2^8
<d8a8<a8>b8e8b8<a8o6c+8
<d8a8<a8>b8e8b8<a8o6c+8
<d8a8<a8>b8e8b8<a8o6c+8
<d8a8<a8>b8e8g8f+8e8
<g8>b16b16b8b8a8a8b8b8
>c8c8<a8a8g8g8f+8r4
b16b16b8b8a8a8b8b8
>c8c8<a8a8g8g8f+8r4
d8r8d8c8r2^4^8
>d8d8c8r4
<d8r8d8c8r2^4^8
>d8d8c8r4
<d8r8d8c8r2^4^8
>d8d8c8r4
<d8r8d8c8r2^4^8
>d8d8c8r4
<d8r8d8c8r2^4^8
>d8d8c8r1^1^8
o4d8o6c+8c+8<b8b8r2^4^8
f+8f+8e8o3a8
>d8o6c+8c+8<b8b8r2^4^8
f+8f+8e8o3a8
>d8o6c+8c+8<b8b8r2^4^8
f+8f+8e8<a8
a8>f+8f+8r8<a8>c+8c+8r8
<a8>f+8f+8r8<a8>c+8c+8r8
>d8d8d8d8r8<b8r8b8
a8r8>c+8r2^8
d8d8d8d8r8<b8r8b8
>c+8r8e8r2^8
<d8a8<a8>b8e8b8<a8o6c+8
<d8a8<a8>b8e8b8<a8o6c+8
<d8a8<a8>b8e8b8<a8o6c+8
<d8a8<a8>b8e8g8f+8e8
;


#4 @0 v220 y10

r1^1^1^1^1^2
<d2
g8r1^2^8
d4
g8r1^2^8
d4
g8r1^1^1^1^1^1^1^8
>b8>c8c+8d8d+8e8
f+4r8a4r8f+4
g16r16f+16r16e16r2^8^16
f+4r8a4^8r8f+8
f+4r8a4^8r8f+8
a16r16f+8g16r16e8f+16r16d8e16r16c+8
d16r16a8g16r16f+16r16e16r8^16a16r1^1^1^1^8^16
<a8>d16r16f+16r16a16r16g8f+16r16g16r16e16r16
<a8>d16r16f+16r16a16r16g16r16f+16r16e4
<a8>d16r16f+16r16a16r16g8f+16r16g16r16e16r16
<a8>d16r16f+16r16g16r16f+8d16r16e16r16<a8
g16r1^1^1^4^8^16
<d2
g8r1^2^8
d4
g8r1^2^8
d4
g8r1^1^1^1^1^1^1^8
>b8>c8c+8d8d+8e8
f+4r8a4r8f+4
g16r16f+16r16e16r2^8^16
f+4r8a4^8r8f+8
f+4r8a4^8r8f+8
a16r16f+8g16r16e8f+16r16d8e16r16c+8
d16r16a8g16r16f+16r16e16r8^16a16r1^1^1^1^8^16
<a8>d16r16f+16r16a16r16g8f+16r16g16r16e16r16
<a8>d16r16f+16r16a16r16g16r16f+16r16e4
<a8>d16r16f+16r16a16r16g8f+16r16g16r16e16r16
<a8>d16r16f+16r16g16r16f+8d16r16e16r16<a8
;


#5 @0 v220 y10

r1^1^1^1^1^1^1^1^1^17g16r16d16r16<b16r16>d16r16e16r16f+16r16e16r16d+16r16
d16r16g16r16b16r16>d16r16c16r16<b16r16a16r8^16
g16r8^16d16r16<b16r16>e16r8^16f+16r16e16r16
d16r16c16<b16>c16r16<b16a16b16r8^16d4
g16r16g16r16g16r16g16r16b16r8^16b4
a16r16a16r16b8>c16r16<f+16r16f+16r16f+16r8^16
a16r16g+16r16g16r16f+16r8^16<b8>c16r16d16r16
<b8r1
>f+16r16f+16g16a16r8^16f+16r16f+16g16a16r8^16
g16r16g16a16b16r8^16g16r16g16a16b16r8^16
f+16r16f+16g16a16r8^16f+16r16f+16g16a16r8^16
g16r16g16f+16e16r8^16g16r16g16f+16e16r8^16
f+16r16f+16g16a16r8^16f+16r16f+16g16a16r8^16
g16r16g16f+16e16r8^16g16r16g16f+16e16r8^16
f+16r8^16f+16r8^16f+16r8^16e16r1^1^2^8^16
<a16r16>c+16r16e16r1^4^16
c+16r16c+16r16<a16r16a16r16g4
r1^1^1^1^1^1^1^1^1^1^1^1
7g16r16d16r16<b16r16>d16r16e16r16f+16r16e16r16d+16r16
d16r16g16r16b16r16>d16r16c16r16<b16r16a16r8^16
g16r8^16d16r16<b16r16>e16r8^16f+16r16e16r16
d16r16c16<b16>c16r16<b16a16b16r8^16d4
g16r16g16r16g16r16g16r16b16r8^16b4
a16r16a16r16b8>c16r16<f+16r16f+16r16f+16r8^16
a16r16g+16r16g16r16f+16r8^16<b8>c16r16d16r16
<b8r1
>f+16r16f+16g16a16r8^16f+16r16f+16g16a16r8^16
g16r16g16a16b16r8^16g16r16g16a16b16r8^16
f+16r16f+16g16a16r8^16f+16r16f+16g16a16r8^16
g16r16g16f+16e16r8^16g16r16g16f+16e16r8^16
f+16r16f+16g16a16r8^16f+16r16f+16g16a16r8^16
g16r16g16f+16e16r8^16g16r16g16f+16e16r8^16
f+16r8^16f+16r8^16f+16r8^16e16r1^1^2^8^16
<a16r16>c+16r16e16r1^4^16
c+16r16c+16r16<a16r16a16r16g4
;


#0 @0 v220 y10

r1^1^8
g+8g8g+8g8g8g+8g+8
g8g8g+8g8g8g8g+8g8
r8g+8g8g+8g8g8g+8g+8
g8g8g+8g8g8g8g+8g8
r1^1^1^1^1^1^1^1^1^1^1^1^4
g+8g8r8g+8g8r4^8
g8g+8g8g+8r2
g+8g8r8g+8g8r4^8
g8g+8g8g+8r2
g+8g8r8g+8g8r4^8
g8g+8g8g+8r4
g8g+8r8g+8g8r8g+8g8
r8g+8g8r8g+8g8r8g+8
r1^1^1^1^1^1^1^1^8
g+8g8g+8g8g8g+8g+8
g8g8g+8g8g8g8g+8g8
r8g+8g8g+8g8g8g+8g+8
g8g8g+8g8g8g8g+8g8
r1^1^1^1^1^1^1^1^1^1^1^1^4
g+8g8r8g+8g8r4^8
g8g+8g8g+8r2
g+8g8r8g+8g8r4^8
g8g+8g8g+8r2
g+8g8r8g+8g8r4^8
g8g+8g8g+8r4
g8g+8r8g+8g8r8g+8g8
r8g+8g8r8g+8g8r8g+8
;
