#am4
;-- HEADER AUTOMATICALLY GENERATED --
$ED $80 $6D $2B 
$ED $80 $7D $00 
$F0
;-- END OF HEADER -------------------

; Super Mario Galaxy 2 - Melty Monster Galaxy
; ported by K3nny
 
$EF $7F $00 $00
$F1 $04 $63 $01
$F2 $D8 $28 $28
#0w255 t48
v0c4
/
 @6 q7f v255 y10 
o2[a8r4a8r4^8a8
r4^8a8r8a8a16a+8^16]2
[a8r4a8r2]16
a8r2a8r8a8
g8r2g8r8g8
f8r2f8r8f8
d8r4^8f4g4
a8r8o4e4a4>e4
d+16r16<b16r16>c+2r1^1^1^2
<e4a4>e4
d+16r16<b16r16>c+2r8<b16>c+16
d1^2^4^8^32
r1^16^32
<e1
;

#1 r4/@5 q7f v255 y10
o1[a8r4a8r4^8a8
r4^8a8r8a8a16a+8^16]2
[a8r4a8r2]16
a8r2a8r8a8
g8r2g8r8g8
f8r2f8r8f8
d8r4^8f4g4
a8r8o4e4a4>e4
d+16r16<b16r16>c+2r1^1^1^2
<e4a4>e4
d+16r16<b16r16>c+2r8<b16>c+16
d1^2^4^8^32
r1^16^32
<e1
;

#2 r4/ @1 q7f v242 y10
o5a8r1^1^1^2^4^8
o3a16^32r32a16^32r32g16a16^32r32g16a16^32r32g16^32r32e16^32r32g16^32r32
a16^32r32a16^32r32g16a16^32r32g16a4g4
a16^32r32a16^32r32g16a16^32r32g16a16^32r32g16^32r32e16^32r32g16^32r32
a16^32r32a16^32r32g16a16^32r32g16>c4d4
<a16^32r32a16^32r32g16a16^32r32g16a16^32r32g16^32r32e16^32r32g16^32r32
a16^32r32a16^32r32g16a16^32r32g16a4g4
a16^32r32a16^32r32g16a16^32r32g16a16^32r32g16^32r32e16^32r32g16^32r32
>c4d4<b4>c4
a16^32r32a16^32r32g16a16^32r32g16a16^32r32g16^32r32e16^32r32g16^32r32
a16^32r32a16^32r32g16a16^32r32g16a4g4
a16^32r32a16^32r32g16a16^32r32g16a16^32r32g16^32r32e16^32r32g16^32r32
a16^32r32a16^32r32g16a16^32r32g16>c4d4
<a16^32r32a16^32r32g16a16^32r32g16a16^32r32g16^32r32e16^32r32g16^32r32
a16^32r32a16^32r32g16a16^32r32g16a4g4
a16^32r32a16^32r32g16a16^32r32g16a16^32r32g16^32r32e16^32r32g16^32r32
>c4d4<b4>c4
<a8r8e8^16g32>c32e4r1^4^8
o4e32f16g32a32b16>c32d32d+16f32g16r1^4^8^16
<a16g+16a16e16a16g+16a16e16a16g+16a16e16a16g+16a16e16
a16g+16a16e16a16g+16a16e16a16g+16a16e16a16g+16a16e16
r8e16g16a16r16g16a16b16r16a16b16>c16r16e16f+16
e16r16e16f+16e16r16e16f+16e16r16e16f+16e16r16f+16g+16
a16r4^16a32g16f+32e16d16c+16<b16>f+32e16d32c+16<b16
a16r8^16a16g+16a16r16e16r16a16g+16a16r16e16r16
a16g+16a16r16e16r16a16g+16a16r16e16r2^16
c16r16<a16r16>g16r16>f4a8
r8f8>c4^8^16^32r1^4^32
o4f16g16a16b16g16a16b16>c16<b16>c16d16e16b32>c16d32e32f16g32
;

#3 r4/@18 q7f v245 y10
o5a8r1^1^1^2^4^8
o2a16^32r32a16^32r32g16a16^32r32g16a16^32r32g16^32r32e16^32r32g16^32r32
a16^32r32a16^32r32g16a16^32r32g16a4g4
a16^32r32a16^32r32g16a16^32r32g16a16^32r32g16^32r32e16^32r32g16^32r32
a16^32r32a16^32r32g16a16^32r32g16>c4d4
<a16^32r32a16^32r32g16a16^32r32g16a16^32r32g16^32r32e16^32r32g16^32r32
a16^32r32a16^32r32g16a16^32r32g16a4g4
a16^32r32a16^32r32g16a16^32r32g16a16^32r32g16^32r32e16^32r32g16^32r32
>c4d4<b4>c4
a16^32r32a16^32r32g16a16^32r32g16a16^32r32g16^32r32e16^32r32g16^32r32
a16^32r32a16^32r32g16a16^32r32g16a4g4
a16^32r32a16^32r32g16a16^32r32g16a16^32r32g16^32r32e16^32r32g16^32r32
a16^32r32a16^32r32g16a16^32r32g16>c4d4
<a16^32r32a16^32r32g16a16^32r32g16a16^32r32g16^32r32e16^32r32g16^32r32
a16^32r32a16^32r32g16a16^32r32g16a4g4
a16^32r32a16^32r32g16a16^32r32g16a16^32r32g16^32r32e16^32r32g16^32r32
>c4d4<b4>c4
<a8r8e4>e4r4^8
>e32d16c+32c16<b16a16g16>d32c16<b32a16g16f16e16d16r8^16
>e32f16g32a32b16>c32d32d+16f32g16r1^4^8^16
<a16g+16a16e16a16g+16a16e16a16g+16a16e16a16g+16a16e16
a16g+16a16e16a16g+16a16e16a16g+16a16e16a16g+16a16e16
r8e16g16a16r16g16a16b16r16a16b16>c16r16e16f+16
e16r16e16f+16e16r16e16f+16e16r16e16f+16e16r16f+16g+16
o4a16r4^16a32g16f+32e16d16c+16<b16>f+32e16d32c+16<b16
a16r8^16a16g+16a16r16e16r16a16g+16a16r16e16r16
a16g+16a16r16e16r16a16g+16a16r16e16r2^16
o3c16r16<a16r16>g16r16>f4a8
r8f8>c4^8^16^32r1^4^32
o4f16g16a16b16g16a16b16>c16<b16>c16d16e16b32>c16d32e32f16g32
;

#4 r4/@6 q7f v220 y10
[r1]14
(2)[<a16^32r32a16^32r32g16a16^32r32g16a16^32r32g16^32r32e16^32r32g16^32r32]1
a16^32r32a16^32r32g16a16^32r32g16>c4d4
r1^1
(2)1
o3>c4d4<b4>c4
<a8[r1]28r2^4^8
a16^32r32a16^32r32g16a16^32r32g16a16^32r32g16^32r32e16^32r32g16^32r32
a16^32r32a16^32r32g16a16^32r32g16>c4d4
r1^1
<a16^32r32a16^32r32g16a16^32r32g16a16^32r32g16^32r32e16^32r32g16^32r32
>c4d4<b4>c4
<a8;

#5 r4/@6 q7f v205 y10
o5a8r1^1^1^1^1^1^1^1^1^1^1^1^1^1^1^4^8
c4d4
<a8r1^1^2^4^8
>c4d4<b4>c4
<a8<a16^32r32g16a16^32r32g16a16^32r32g16^32r32e16^32r32g16^32r32
(3)[a16^32r32a16^32r32g16a16^32r32g16]1a4g4
(3)1a16^32r32g16^32r32e16^32r32g16^32r32
(3)1o5c4d4
<a8r1^2^4
b16>c+16
d2^4^8c+16d16
e2^4d4
c+16r16<a16r16e2^8^16^32r1^2^4^8^32
b16>c+16
d1^2^4^8^32
r1^16^32
<e1
;

#6 r4/@10 q7f v200 y10
<f8r4f8r16f8r16f8f8
r4^8f8r16f8r16f8r8
f8r4f8r16f+16f8f8f8
r8^16f+16f8f8r16f16f16f16f32f32f32f32f32f32f32f32
[f8r4f8r16f8r16f8f8
f8r4f8r16f8r16f8r8
f8r4f8r16f16f16r16f8f16f16
f8r16f16f16r16f8r16f16f16f16f8r8]6
f8r2f8r8f8
f8r4f8r16f8r16f8f8
f8r4f8r16f8r16f8r8
f8r4f8r16f16f16r16f8f16f16
f8r16f16f16r16f8r16f16f16f16f8r4
<c32c16c32c16r16a16r8e16r8g16r8^16
c2r2
;

#7 r4/@29 q7f v170 y10
r1^1^1^2
o3c32c16c32c32c16c32c32c16c32c32c16c32
(1)[c2r1
c32c16c32c32c16c32c32c16c32c32c16c32
c2r1
c32c16c32c32c16c32c32c16c32c32c16c32
c2r1
c32c16c32c32c16c32c32c16c32c32c16c32
c2r1^1^1
c32c16c32c32c16c32c32c16c32c32c16c32
c2r1
c32c16c32c32c16c32c32c16c32c32c16c32
c2r1
c32c16c32c32c16c32c32c16c32c32c16c32
c2r1
c32c16c32c32c16c32c32c16c32c32c16c32
c2c32c16c32c32c16c32c32c16c32c32c16c32
c2c32c16c32c32c16c32c32c16c32c32c16c32
c2c32c16c32c32c16c32c32c16c32c32c16c32
c2c32c16c32c32c16c32c32c16c32c32c16c32
c2r1^2
c2r1^1^8
c8r8c8
c2r1^2
c2r1^2^8
c32c16c32c16r16a16r8e16r8g16r8^16]1
c2[r1]4
[c32c16c32]4
(1)1
c2;