#am4
#1 @0 v220 y10
r1^1^1^1^4
o1g16^32r16b16^32>d16^32r16f+16^32g16^32a16b16^32
>d16^32r16f+16^32r1^2
o1g16^32r16b16^32
>d16^32r16f+16^32g16^32a16b16^32>d16^32r16f+16^32g16^32r16b16^32
>d16^32r16f+16^32a16^32f+16d16^32<a16^32f+16d16^32o1f16^32r16a16^32
>c16^32r16e16^32f16^32g16a16^32>c16^32r16e16^32f16^32r16a16^32
>c16^32r16e16^32g16^32e16c16^32<g16^32e16c16^32o1g16^32r16b16^32
>d16^32r16f+16^32g16^32a16b16^32>d16^32r16f+16^32g16^32r16b16^32
>d16^32r16f+16^32a16^32f+16d16^32<a16^32f+16d16^32o1g+16^32r16>c16^32
d+16^32r16g16^32g+16^32a+16>c16^32d+16^32r16g16^32g+16^32r16>c16^32
d+16^32r16g16^32a+16^32g16d+16^32a+16^32g16r16^32o1g16^32r16b16^32
>d16^32r16f+16^32g16^32a16b16^32>d16^32r16f+16^32g16^32r16b16^32
>d16^32r16f+16^32a16^32f+16d16^32<a16^32f+16d16^32o1f16^32r16a16^32
>c16^32r16e16^32f16^32g16a16^32>c16^32r16e16^32f16^32r16a16^32
>c16^32r16e16^32g16^32e16c16^32<g16^32e16c16^32o1g16^32r16b16^32
>d16^32r16f+16^32g16^32a16b16^32>d16^32r16f+16^32g16^32r16b16^32
>d16^32r16f+16^32a16^32f+16d16^32<a16^32f+16d16^32o1g+16^32r16>c16^32
d+16^32r16g16^32g+16^32a+16>c16^32d+16^32r16g16^32g+16^32r16>c16^32
d+16^32r16g16^32a+16^32g16d+16^32a+16^32g16r16^32o1d+16^32g16a+16^32
>d+16^32g16a+16^32>d16^32d+16g16^32a+16^32>c16d16^32d+16^32f16g16^32
a+16^32g16f16^32d+16^32d16c16^32<a+16^32g16d+16^32o1d16^32r16f+16^32
a16^32r16>c+16^32d16^32f16f+16^32a16^32r16>c+16^32d+16^32r16f+16^32
a16^32r16>c+16^32e16^32c+16<a16^32>c+16^32<a16>e16^32o1g+16^32>c16d+16^32
g16^32g+16a+16^32>c16^32d+16g16^32g+16^32b16>d+16^32g16^32r16g16^32
r16^32g16r16^32f16^32r16d+16^32d16^32r16<a+16^32o1g16^32a+16>d+16^32
f+16^32g16b16^32>d16^32f+16g16^32b16^32>d16e16^32f+16^32g16a16^32
g16^32f+16e16^32d16^32<b16g16^32f+16^32d16<b16^32<g16^32r16b16^32
>d16^32r16f+16^32g16^32a16b16^32>d16^32r16f+16^32g16^32r16b16^32
>d16^32r16f+16^32a16^32f+16d16^32<a16^32f+16d16^32o1f16^32r16a16^32
>c16^32r16e16^32f16^32g16a16^32>c16^32r16e16^32f16^32r16a16^32
>c16^32r16e16^32g16^32e16c16^32<g16^32e16c16^32o1g16^32r16b16^32
>d16^32r16f+16^32g16^32a16b16^32>d16^32r16f+16^32g16^32r16b16^32
>d16^32r16f+16^32a16^32f+16d16^32<a16^32f+16d16^32o1f16^32r16a16^32
>c16^32r16e16^32f16^32g16a16^32>c16^32r16e16^32f16^32r16a16^32
>c16^32r16e16^32g16^32e16c16^32<g16^32e16c16^32o1d+16^32g16a+16^32
>d+16^32g16a+16^32>d16^32d+16g16^32a+16^32>c16d16^32d+16^32f16g16^32
a+16^32g16f16^32d+16^32d16c16^32<a+16^32g16d+16^32o1d16^32r16f+16^32
a16^32r16>c+16^32d16^32f16f+16^32a16^32r16>c+16^32d+16^32r16f+16^32
a16^32r16>c+16^32e16^32c+16<a16^32>c+16^32<a16>e16^32o1g+16^32>c16d+16^32
g16^32g+16a+16^32>c16^32d+16g16^32g+16^32b16>d+16^32g16^32r16g16^32
r16^32g16r16^32f16^32r16d+16^32d16^32r16<a+16^32o1g16^32a+16>d+16^32
f+16^32g16b16^32>d16^32f+16g16^32b16^32>d16e16^32f+16^32g16a16^32
g16^32f+16e16^32d16^32<b16g16^32f+16^32d16<b16^32<d+16^32g16a+16^32
>d+16^32g16a+16^32>d16^32d+16g16^32a+16^32>c16d16^32d+16^32f16g16^32
a+16^32g16f16^32d+16^32d16c16^32<a+16^32g16d+16^32o1d16^32r16f+16^32
a16^32r16>c+16^32d16^32f16f+16^32a16^32r16>c+16^32d+16^32r16f+16^32
a16^32r16>c+16^32e16^32c+16<a16^32>c+16^32<a16>e16^32o1g+16^32>c16d+16^32
g16^32g+16a+16^32>c16^32d+16g16^32g+16^32b16>d+16^32g16^32r16g16^32
r16^32g16r16^32f16^32r16d+16^32d16^32r16<a+16^32o1g16^32a+16>d+16^32
f+16^32g16b16^32>d16^32f+16g16^32b16^32>d16e16^32f+16^32g16a16^32
g16^32f+16e16^32d16^32<b16g16^32f+16^32d16<b16^32<g16^32r16b16^32
>d16^32r16f+16^32g16^32a16b16^32>d16^32r16f+16^32g16^32r16b16^32
>d16^32r16f+16^32a16^32f+16d16^32<a16^32f+16d16^32o1f16^32r16a16^32
>c16^32r16e16^32f16^32g16a16^32>c16^32r16e16^32f16^32r16a16^32
>c16^32r16e16^32f16^32e16c16^32<g16^32e16c16^32o1g16^32r16b16^32
>d16^32r16f+16^32g16^32a16b16^32>d16^32r16f+16^32g16^32r16b16^32
>d16^32r16f+16^32a16^32f+16d16^32<a16^32f+16d16^32o1f16^32r16a16^32
>c16^32r16e16^32f16^32g16a16^32>c16^32r16e16^32f16^32r16a16^32
>c16^32r16e16^32g16^32e16c16^32g16^32e16a16^32r1^1^1^1
o1d+16^32g16a+16^32
>d+16^32g16a+16^32>d16^32d+16g16^32a+16^32>c16d16^32d+16^32f16g16^32
a+16^32g16f16^32d+16^32d16c16^32<a+16^32g16d+16^32o1d16^32r16f+16^32
a16^32r16>c+16^32d16^32f16f+16^32a16^32r16>c+16^32d+16^32r16f+16^32
a16^32r16>c+16^32e16^32c+16<a16^32>c+16^32<a16>e16^32o1g+16^32>c16d+16^32
g16^32g+16a+16^32>c16^32d+16g16^32g+16^32b16>d+16^32g16^32r16g16^32
r16^32g16r16^32f16^32r16d+16^32d16^32r16<a+16^32o1g16^32a+16>d+16^32
f+16^32g16b16^32>d16^32f+16g16^32b16^32>d16e16^32f+16^32g16a16^32
g16^32f+16e16^32d16^32<b16g16^32f+16^32d16<b16^32<g16^32r16b16^32
>d16^32r16f+16^32g16^32a16b16^32>d16^32r16f+16^32g16^32r16b16^32
>d16^32r16f+16^32a16^32f+16d16^32<a16^32f+16d16^32o1f16^32r16a16^32
>c16^32r16e16^32f16^32g16a16^32>c16^32r16e16^32f16^32r16a16^32
>c16^32r16e16^32g16^32e16c16^32<g16^32e16c16^32o1g16^32r16b16^32
>d16^32r16f+16^32g16^32a16b16^32>d16^32r16f+16^32g16^32r16b16^32
>d16^32r16f+16^32a16^32f+16d16^32<a16^32f+16d16^32o1f16^32r16a16^32
>c16^32r16e16^32f16^32g16a16^32>c16^32r16e16^32f16^32r16a16^32
>c16^32r16e16^32g16^32e16c16^32<g16^32e16c16^32o1d+16^32g16a+16^32
>d+16^32g16a+16^32>d16^32d+16g16^32a+16^32>c16d16^32d+16^32f16g16^32
a+16^32g16f16^32d+16^32d16c16^32<a+16^32g16d+16^32o1d16^32r16f+16^32
a16^32r16>c+16^32d16^32f16f+16^32a16^32r16>c+16^32d+16^32r16f+16^32
a16^32r16>c+16^32e16^32c+16<a16^32>c+16^32<a16>e16^32o1g+16^32>c16d+16^32
g16^32g+16a+16^32>c16^32d+16g16^32g+16^32b16>d+16^32g16^32r16g16^32
r16^32g16r16^32f16^32r16d+16^32d16^32r16<a+16^32o1g16^32a+16>d+16^32
f+16^32g16b16^32>d16^32f+16g16^32b16^32>d16e16^32f+16^32g16a16^32
g16^32f+16e16^32d16^32<b16g16^32f+16^32d16<b16^32<d+16^32g16a+16^32
>d+16^32g16a+16^32>d16^32d+16g16^32a+16^32>c16d16^32d+16^32f16g16^32
a+16^32g16f16^32d+16^32d16c16^32<a+16^32g16d+16^32o1d16^32r16f+16^32
a16^32r16>c+16^32d16^32f16f+16^32a16^32r16>c+16^32d+16^32r16f+16^32
a16^32r16>c+16^32e16^32c+16<a16^32>c+16^32<a16>e16^32o1g+16^32>c16d+16^32
g16^32g+16a+16^32>c16^32d+16g16^32g+16^32b16>d+16^32g16^32r16g16^32
r16^32g16r16^32f16^32r16d+16^32d16^32r16<a+16^32o1g16^32a+16>d+16^32
f+16^32g16b16^32>d16^32f+16g16^32b16^32>d16e16^32f+16^32g16a16^32
g16^32f+16e16^32d16^32<b16g16^32f+16^32d16<b16^32<g16^32r16b16^32
>d16^32r16f+16^32g16^32a16b16^32>d16^32r16f+16^32g16^32r16b16^32
>d16^32r16f+16^32a16^32f+16d16^32<a16^32f+16d16^32o1f16^32r16a16^32
>c16^32r16e16^32f16^32g16a16^32>c16^32r16e16^32f16^32r16a16^32
>c16^32r16e16^32f16^32e16c16^32<g16^32e16c16^32o1g16^32r16b16^32
>d16^32r16f+16^32g16^32a16b16^32>d16^32r16f+16^32g16^32r16b16^32
>d16^32r16f+16^32a16^32f+16d16^32<a16^32f+16d16^32o1f16^32r16a16^32
>c16^32r16e16^32f16^32g16a16^32>c16^32r16e16^32f16^32r16a16^32
>c16^32r16e16^32g16^32e16c16^32g16^32e16a16^32;
#2 @0 v220 y10
r1^1^1^1^1^1^1^1^1^1^1^1^1^1^1^1^1^1^1^1^1^1^1^1^1^1^1^1^1^1^1^1^1^1^1^1^1^1^1^1^1^1^1^1^1^1^1^1^1^1^1^1^1^1^1
>g16^32d16g16^32r16^32g16d16^32g16^32d16g16^32d16^32g16d16^32
g16^32d16g16^32d16^32g16d16^32r2^4
f16^32c16f16^32c16^32f16c16^32f16^32c16f16^32
c16^32f16c16^32f16^32c16f16^32r2
b16^32d16b16^32d16^32b16d16^32b16^32d16b16^32d16^32b16d16^32
b16^32d16b16^32d16^32b16d16^32r1^1^4
o1d+32c16d+32g32>c16r32
d+32c16d+32c32<g16r32d+32c16d+32g32r4^16^32d+32c16d+32r32g16d+32
g32r16a+32g32a+16r32>d+32<a+16>d+32r32g16d+32g32r16a+32g32a+16r32<d+32c16d+32g32>c16r32
d+32c16d+32c32<g16r32d+32c16d+32g32r4^16^32d+32c16d+32r32g16d+32
g32r16a+32g32a+16r32>d+32<a+16>d+32r32g16d+32g32r16a+32g32a+16r1^1^1^1^1^1^1^1^1^1^1^1^1^1^1^1^1^1^1^1^1^1^1^1^1^1^1^1^1^1^1^1^4^32
o4g16^32d16g16^32r16^32g16d16^32g16^32d16g16^32d16^32g16d16^32
g16^32d16g16^32d16^32g16d16^32r2^4
f16^32c16f16^32c16^32f16c16^32f16^32c16f16^32
c16^32f16c16^32f16^32c16f16^32r2
b16^32d16b16^32d16^32b16d16^32b16^32d16b16^32d16^32b16d16^32
b16^32d16b16^32d16^32b16d16^32r1^1^4
o1d+32c16d+32g32>c16r32
d+32c16d+32c32<g16r32d+32c16d+32g32r4^16^32d+32c16d+32r32g16d+32
g32r16a+32g32a+16r32>d+32<a+16>d+32r32g16d+32g32r16a+32g32a+16r32<d+32c16d+32g32>c16r32
d+32c16d+32c32<g16r32d+32c16d+32g32r4^16^32d+32c16d+32r32g16d+32
g32r16a+32g32a+16r32>d+32<a+16>d+32r32g16d+32g32r16a+32g32a+16;
#3 @0 v220 y10
r1^1^1^1^4
o1g16^32r16b16^32>d16^32r16f+16^32g16^32a16b16^32
>d16^32r16f+16^32r1^2
o1g16^32r16b16^32
>d16^32r16f+16^32g16^32a16b16^32>d16^32r16f+16^32g16^32r16b16^32
>d16^32r16f+16^32a16^32f+16d16^32<a16^32f+16d16^32o1f16^32r16a16^32
>c16^32r16e16^32f16^32g16a16^32>c16^32r16e16^32f16^32r16a16^32
>c16^32r16e16^32g16^32e16c16^32<g16^32e16c16^32o1g16^32r16b16^32
>d16^32r16f+16^32g16^32a16b16^32>d16^32r16f+16^32g16^32r16b16^32
>d16^32r16f+16^32a16^32f+16d16^32<a16^32f+16d16^32o1a16^32r16>c16^32
e16^32r16g16^32g+16^32a+16>c16^32d+16^32r16g16^32g+16^32r16>c16^32
d+16^32r16g16^32a+16^32g16d+16^32f+16^32g+16a+16^32r1^1^1^1^1^1^1^1
o1d+16^32g16a+16^32
>d+16^32g16a+16^32>d16^32d+16g16^32a+16^32>c16d16^32d+16^32f16g16^32
a+16^32g16f16^32d+16^32d16c16^32<a+16^32g16d+16^32o1d16^32r16f+16^32
a16^32r16>c+16^32d16^32f16f+16^32a16^32r16>c+16^32d+16^32r16f+16^32
a16^32r16>c+16^32e16^32c+16<a16^32>c+16^32<a16>e16^32o1g+16^32>c16d+16^32
g16^32g+16a+16^32>c16^32d+16g16^32g+16^32b16>d+16^32g16^32r16g16^32
r16^32g16r16^32f16^32r16d+16^32d16^32r16<a+16^32o1g16^32a+16>d+16^32
f+16^32g16b16^32>d16^32f+16g16^32b16^32>d16e16^32f+16^32g16a16^32
g16^32f+16e16^32r2o1g4^8^32
g16^32r1^4^8^32
>f16^32<f4^8^32
f16^32r1^4^8^32
>g16^32<g4^8^32
g16^32r1^4^8^32
>f16^32<f4^8^32
f16^32r1^2
d+16^32r16d16^32
d+8^32g16^32r8^32a+16^32r8^32>d16^32r2^8^32
d16^32<d+4d16^32r16c+16^32
d8^32f+16^32r8^32a16^32r8^32>c+16^32r4^8^32
c+16^32r8^32c+16^32<d4f16^32r16e16^32
f8^32g+16^32r8^32>c16^32r8^32d16^32o4d+16^32r16d+16^32
r16^32d+16r16^32o2d16^32d+16d16^32c16^32r16<g+16^32g16^32r16f+16^32
g8^32b16^32r8^32>d16^32r8^32f+16^32r8^32f+16^32
<g4>f+16^32r16f+16^32f+16^32e16d16^32<d+16^32r16d16^32
d+8^32g16^32r8^32a+16^32r8^32>d16^32r2^8^32
d16^32<d+4d16^32r16c+16^32
d8^32f+16^32r8^32a16^32r8^32>c+16^32r4^8^32
c+16^32r8^32c+16^32<d4f16^32r16e16^32
f8^32g+16^32r8^32>c16^32r8^32d16^32d+16^32r16d+16^32
r16^32d+16r16^32d16^32d+16d16^32c16^32r16<g+16^32g16^32r16f+16^32
g8^32b16^32r8^32>d16^32r8^32f+16^32r8^32f+16^32
<g4>f+16^32r16f+16^32f+16^32e16d16^32<g4^8^32
g16^32r1^4^8^32
>f16^32<f4^8^32
f16^32r1^4^8^32
>g16^32<g4^8^32
g16^32r1^4^8^32
>f16^32<f4^8^32
f16^32r1^1^1^1^1^2
d+16^32g16a+16^32
>d+16^32g16a+16^32>d16^32d+16g16^32a+16^32>c16d16^32d+16^32f16g16^32
a+16^32g16f16^32d+16^32d16c16^32<a+16^32g16d+16^32o1d16^32r16f+16^32
a16^32r16>c+16^32d16^32f16f+16^32a16^32r16>c+16^32d+16^32r16f+16^32
a16^32r16>c+16^32e16^32c+16<a16^32>c+16^32<a16>e16^32o1g+16^32>c16d+16^32
g16^32g+16a+16^32>c16^32d+16g16^32g+16^32b16>d+16^32g16^32r16g16^32
r16^32g16r16^32f16^32r16d+16^32d16^32r16<a+16^32o1g16^32a+16>d+16^32
f+16^32g16b16^32>d16^32f+16g16^32b16^32>d16e16^32f+16^32g16a16^32
g16^32f+16e16^32r2o1g4^8^32
g16^32r1^4^8^32
>f16^32<f4^8^32
f16^32r1^4^8^32
>g16^32<g4^8^32
g16^32r1^4^8^32
>f16^32<f4^8^32
f16^32r1^2
d+16^32r16d16^32
d+8^32g16^32r8^32a+16^32r8^32>d16^32r2^8^32
d16^32<d+4d16^32r16c+16^32
d8^32f+16^32r8^32a16^32r8^32>c+16^32r4^8^32
c+16^32r8^32c+16^32<d4f16^32r16e16^32
f8^32g+16^32r8^32>c16^32r8^32d16^32o4d+16^32r16d+16^32
r16^32d+16r16^32o2d16^32d+16d16^32c16^32r16<g+16^32g16^32r16f+16^32
g8^32b16^32r8^32>d16^32r8^32f+16^32r8^32f+16^32
<g4>f+16^32r16f+16^32f+16^32e16d16^32<d+16^32r16d16^32
d+8^32g16^32r8^32a+16^32r8^32>d16^32r2^8^32
d16^32<d+4d16^32r16c+16^32
d8^32f+16^32r8^32a16^32r8^32>c+16^32r4^8^32
c+16^32r8^32c+16^32<d4f16^32r16e16^32
f8^32g+16^32r8^32>c16^32r8^32d16^32d+16^32r16d+16^32
r16^32d+16r16^32d16^32d+16d16^32c16^32r16<g+16^32g16^32r16f+16^32
g8^32b16^32r8^32>d16^32r8^32f+16^32r8^32f+16^32
<g4>f+16^32r16f+16^32f+16^32e16d16^32<g4^8^32
g16^32r1^4^8^32
>f16^32<f4^8^32
f16^32r1^4^8^32
>g16^32<g4^8^32
g16^32r1^4^8^32
>f16^32<f4^8^32
f16^32;
#4 @0 v220 y10
r1^1^1^2^4
o6g16^32r8^32
c+16^32r8^32g16^32r16g16^32c+16^32r8^32g16^32r8^32
c+16^32r1^8^32
g16^32r8^32c+16^32r8^32g16^32r16g16^32
c+16^32r8^32g16^32r8^32c+16^32r8^32g16^32r8^32
c+16^32r8^32g16^32r8^32c+16^32r8^32g16^32r8^32
c+16^32r8^32g16^32r16g16^32c+16^32r8^32g16^32r8^32
c+16^32r8^32g16^32r8^32c+16^32r8^32g16^32r16g16^32
c+16^32r8^32g16^32r8^32c+16^32r8^32g16^32r8^32
c+16^32r8^32g16^32r8^32c+16^32r8^32g16^32r8^32
c+16^32r8^32g16^32r16g16^32c+16^32r8^32g16^32r8^32
c+16^32r4^8^32o3a16^32b16>c16^32d1^2
f+16^32e16d+16^32d1^2^4^8^32
f+16^32r8^32c+16^32d1^2^4^8^32
c+16d32d+2^4^8^32
d16d+32f2
d+8d32c16<b32a+32a16g+32f+32e16d+32o1d+16^32r16d16^32
d+8^32g16^32r8^32a+16^32r8^32>d16^32r2^8^32
d16^32<d+4d16^32r16c+16^32
d8^32f+16^32r8^32a16^32r8^32>c+16^32r4^8^32
c+16^32r8^32c+16^32<d4f16^32r16e16^32
f8^32g+16^32r8^32>c16^32r8^32d16^32d+16^32r16d+16^32
r16^32d+16r16^32d16^32d+16d16^32c16^32r16<g+16^32g16^32r16f+16^32
g8^32b16^32r8^32>d16^32r8^32f+16^32r8^32f+16^32
<g4o4d16^32c16<b16^32a16^32b16>c16^32d1^2
f+16^32e16d+16^32d1^2^4
r8^32f+16^32r8^32c+16^32d1^1^1^2
d8c+32<b16a+32a32g+16g32f32d+16d32<g4^8^32
g+4^16^32a+4r8^16^32b32
a+4g+4g4f+2^4^8
g32a+16>c+32d2
c+8c32<a+16a32g+32g16f+32e32d16c+32a+4
>c4d+4^8^32r16^32d+16^32r16d+16^32
r16^32d+16r16^32g+16^32d+16c+16^32c4<b1
o3d2
f+8f32d+16d32c+32c16<b32a32g16f+32>g4^8^32
g+4^16^32a+4r8^16^32b32
a+4g+4g4f+2^4^8
g32a+16>c+32d2
c+8c32<a+16a32g+32g16f+32e32d16c+32a+4
>c4d+4^8^32r16^32d+16^32r16d+16^32
r16^32d+16r16^32g+16^32d+16c+16^32c4<b1
>d2
g16^32f+16e16^32d16^32e16f+16^32d1^2
f+16^32e16d+16^32d1^2^4
r8^32f+16^32r8^32c+16^32d1^1^1^2
d8c+32<b16a+32a32g+16g32f32d+16d32r1^1^1^1
o1d+16^32r16d16^32
d+8^32g16^32r8^32a+16^32r8^32>d16^32r2^8^32
d16^32<d+4d16^32r16c+16^32
d8^32f+16^32r8^32a16^32r8^32>c+16^32r4^8^32
c+16^32r8^32c+16^32<d4f16^32r16e16^32
f8^32g+16^32r8^32>c16^32r8^32d16^32d+16^32r16d+16^32
r16^32d+16r16^32d16^32d+16d16^32c16^32r16<g+16^32g16^32r16f+16^32
g8^32b16^32r8^32>d16^32r8^32f+16^32r8^32f+16^32
<g4o4d16^32c16<b16^32a16^32b16>c16^32d1^2
f+16^32e16d+16^32d1^2^4
r8^32f+16^32r8^32c+16^32d1^1^1^2
d8c+32<b16a+32a32g+16g32f32d+16d32<g4^8^32
g+4^16^32a+4r8^16^32b32
a+4g+4g4f+2^4^8
g32a+16>c+32d2
c+8c32<a+16a32g+32g16f+32e32d16c+32a+4
>c4d+4^8^32r16^32d+16^32r16d+16^32
r16^32d+16r16^32g+16^32d+16c+16^32c4<b1
o3d2
f+8f32d+16d32c+32c16<b32a32g16f+32>g4^8^32
g+4^16^32a+4r8^16^32b32
a+4g+4g4f+2^4^8
g32a+16>c+32d2
c+8c32<a+16a32g+32g16f+32e32d16c+32a+4
>c4d+4^8^32r16^32d+16^32r16d+16^32
r16^32d+16r16^32g+16^32d+16c+16^32c4<b1
>d2
g16^32f+16e16^32d16^32e16f+16^32d1^2
f+16^32e16d+16^32d1^2^4
r8^32f+16^32r8^32c+16^32d1^1^1^2
d8c+32<b16a+32a32g+16g32f32d+16d32;
#5 @0 v220 y10
r1^1^1^1^1^1^1^1^1^1^1^1^1^1^2
>f+16^32g16a16^32b1^2
r4b1^2^4^8^32
r4a+16^32b1^2^4^8^32
a+16b32r2^4^8^32
b16r2^8^32
b32a16g+32g32f+16f32d+32c+16c32r1^1^1^1^1^1^1^2
b16^32a16g16^32f+16^32g16a16^32b1^2
r4b1^2^4
b8^32r4a+16^32b1^1^1^2
b8a+32g+16g32f+32f16e32d32c16<b32d4^8^32
d+4^16^32f4r8^16^32f+32
f4d+4d4c+2^4^8
d32f16a32b2
a8g+32f+16f32e32d+16d32c32<a+16a32>g4
g+4a+4^8^32r16^32a+16^32r16a+16^32
r16^32a+16r16^32>c16^32<a+16g+16^32g4f+1
a2
b8a+32g+16g32f+32f16e32d32c16<b32o4d4^8^32
d+4^16^32f4r8^16^32f+32
f4d+4d4c+2^4^8
d32f16a32b2
a8g+32f+16f32e32d+16d32c32<a+16a32>g4
g+4a+4^8^32r16^32a+16^32r16a+16^32
r16^32a+16r8^16a+16g+16^32g4f+1
a2
b16^32a16g16^32f+16^32g16a16^32b1^2
r4b1^2^4
r4^8^32a+16^32b1^1^1^2
b8a+32g+16g32f+32f16e32d32c16<b32r1^1^1^1^1^1^1^1^1^1^1^2
>b16^32a16g16^32f+16^32g16a16^32b1^2
r4b1^2^4
b8^32r4a+16^32b1^1^1^2
b8a+32g+16g32f+32f16e32d32c16<b32d4^8^32
d+4^16^32f4r8^16^32f+32
f4d+4d4c+2^4^8
d32f16a32b2
a8g+32f+16f32e32d+16d32c32<a+16a32>g4
g+4a+4^8^32r16^32a+16^32r16a+16^32
r16^32a+16r16^32>c16^32<a+16g+16^32g4f+1
a2
b8a+32g+16g32f+32f16e32d32c16<b32o4d4^8^32
d+4^16^32f4r8^16^32f+32
f4d+4d4c+2^4^8
d32f16a32b2
a8g+32f+16f32e32d+16d32c32<a+16a32>g4
g+4a+4^8^32r16^32a+16^32r16a+16^32
r16^32a+16r8^16a+16g+16^32g4f+1
a2
b16^32a16g16^32f+16^32g16a16^32b1^2
r4b1^2^4
r4^8^32a+16^32b1^1^1^2
b8a+32g+16g32f+32f16e32d32c16<b32;
