#am4
#instruments
{
@5 $8D $4C $00 $07 $00 ;@30
@14 $8D $4C $00 $07 $00 ;@31
@13 $CD $60 $00 $03 $00 ;@32
@11 $CD $90 $00 $03 $00 ;@33
@6 $9D $2C $00 $03 $00 ;@34
@24 $FF $FD $00 $07 $00 ;@35
@21 $FF $FD $00 $07 $00 ;@36
}

#4 @5 v220 y10
o3c16o4e16<c16^32r32o5f16<g16o3c16o5d16o3c16o5d16o3c16^32r32>g16r32r16<c16^32r32
o4a8o3c16>g16<c16^32r32o5e8o3c16o5e16o3c16^32r32o6c16r32r16<g16r32r16
a8o3c16o5g16o3c16^32r32o5e8o3c16o5e16o3c16^32r32r32r32r32c16^32r32c16^32r32
o6g16r16g16r16g16r16g16r16g16r4^8^16
c16r8^16<a8^16r16d16r8g8^16r8
>c32r16^32<g32r16^32d+32r16^32a32r16^32d8^32r32d16r8b16r16
c8r16g16r8c2c8
a16f16r16>e16r16<e16r16g16r4d8^16r16
d16r8^16e8^16r16g16r8<a8^16r8
b32r16^32b32r16^32>e32r16^32c+32r16^32c8r16e8r16e32r16^32
<g8^32r32g16r8g4^8r2
c16c+16d16d+16e16f16f+16g16g+16a16a+16b16
>a2^4^16^32r8^32
<b4r8^16a4r4^16
>d1
r2>f+8^32r32g8^32r32<b16r16
c4^8^16c4^8^16r8
<b8r4>f+8^16r4^8^16
>f4e4d4<a8^16b16
r1^2
o3g+16>c+16<f+32r32b32r32e32r32a32r32d32r32g32r32
o6c16r8^16<f+8^16r16d16r8g8^16r8
e32r16^32e32r16^32a32r16^32f+32r16^32f8^32r32b16r8g16r16
c8r16c16r8g2^8
>f16d16r16e16r16<e16r16d16r4d8^16r16
g16r8^16c+8^16r16<a16r8>d8^16r8
g32r16^32d32r16^32<a+32r16^32>e32r16^32<b32r8^32>c8r16c16r16
<b8r8b8r8^16>d8e8r8^16
f4^16r8^16g8^16r16g8^16r16
c8r1^1^1^1^1^2^4^8^16
<g16r8o6c8^16^32r32<f+8^16<b4r8
g16^32r16^32g4>c8^16<b4r8
>c16<g16r16>g16^32r32<g16>c16r16c16r16<g16>c16^32r32<g16>d+16^32
r32c16d+16f16f+16f16r16d+16r8^16d16f16g16g+16b16
r16>d+16r8d+16r8^16c8^32r32g8^16^32r8^32
c16r8<g8^16r16f+8r16f8^16r8^16^32
g16r16^32>c16r8^16d+8^32r32<b4r16
g8^16r16>c8^16r16<d+8^16r8>d16r16d16
r8d+16^32r8^32c16^32r8^32f+16^32r8^32<b16^32r8^32
>c16^32r8^32<d+16^32r8^32g+16^32r8^32g+16f16
r8a+16^32r8^32g16^32r8^32>f16^32r8^32c16^32r8^32
<g16^32r8^32>d16^32r8^32<b16^32r327b32f32e32<b32a32e32d32<a32
;
#7 @13 v220 y10
r1^2^16
<c16r1
g8f8g16^32r32
>g16^32r32g16^32r32g16^32r32g16^32r32g16^32r1^1^1^2^4^8^16^32
<a+16>c16<g+16a+16f+16g+16e16
d16r1^1^2^4
g16f+16g16
g+16a16a+16b16>c16c+16d16d+16e16f16f+16g16g+16^32a16a+16^32
<a8b8>c16r16a8r8a8g8f8
g8e8r8<g4r4^8
f8g8a16r16>f8^16r16f8e8d8
e8c8r2^4
<a8b8>c16r16a8r8a8g8a8
g8a8b8>c8r8<c8d8c8
a+4a4g4f8^16g16
r2^4<g16g32r1^1^1^1^2^8^16^32
a+16>c16<g+16a+16f+16g+16e16
d16r1^2^4^8^16
b16>c16d16<b16>c16d16e16f+16g16e16r16d16r16c16r16<a16
r2>g8^16^32r32g8^16^32r32
g8r1^1^1^1^1^4^8^16
<f16r8f8^32r32f16
r4>c16r2d16r1^1^2^4^8
d16r16d16r16
<a+16>c16d+16<a+16>c16d+16<a+32r32>c32r32f+8f+16f8r4
<a+16>c16d+16<a+16>c16<a+16>c16d+8d+16d8^16r1^1^8
<a+16>c16d+16<a+16>c16d+16<a+32r32>c32r32f+8f+16f8r4
<a+16>c16d+16<a+16>c16<a+16>c16d+8d+16d8^16r2^8
<d+8^16r2^4^16
>g8r8g8r8
e4;
