#am4

#0 @7 v220 y10 w220 t31
f+32r32f+32r16^32f+32r16^32f+32r32f+32r16^32f32r8^16^32o2g32r8^16^32
o4g32r8^32e32r8^32c32r8^16^32f32r32a+32r16^32f32r32f32r16^32
e32r32g32r32>c32r32c32r16^32<b32r16^32>c32r16^32<a32r16^32f32r32g32r32d32r8^32
g32r8^32e32r8^32c32r8^16^32f32r32a+32r16^32f32r32f32r16^32
e32r32g32r32>c32r32c32r16^32<b32r16^32>c32r16^32<a32r16^32f32r32g32r32d32r8^16^32
c32r32>e32r32e32r32d32r32c32r32<b32r32>c32r16^32<f32r16^32f32r32a32r16^32a32r32b32r16^32
c32r32>g32r32f+32r32f32r32e32r32d32r32e32r16^32b32r16^32g32r32b32r4^32
<c32r32>e32r32e32r32d32r32c32r32<b32r32>c32r16^32<f32r16^32f32r32a32r16^32a32r32b32r8^32
>d+32r8^32<a+32r8^32g32r2^32
c32r32>e32r32e32r32d32r32c32r32<b32r32>c32r16^32<f32r16^32f32r32a32r16^32a32r32b32r16^32
c32r32>g32r32f+32r32f32r32e32r32d32r32e32r16^32b32r16^32b32r32g32r4^32
<c32r32>e32r32e32r32d32r32c32r32<b32r32>c32r16^32<f32r16^32f32r32a32r16^32a32r32b32r8^32
>d+32r8^32<a+32r8^32g32r4^8^16^32
g+32r32>c32r16^32<g+32r16^32g+32r32a+32r16^32>c32r32<g32r16^32e32r32c32r8^16^32
g+32r32>c32r16^32<g+32r16^32g+32r32a+32r32>c32r2^32
<g+32r32>c32r16^32<g+32r16^32g+32r32a+32r16^32>c32r32<g32r16^32e32r32c32r8^16^32
f+32r32f+32r16^32f+32r16^32f+32r32f+32r16^32f32r8^16^32o2g32r8^16^32
o4g32r8^32e32r8^32c32r8^16^32f32r32a+32r16^32f32r32f32r16^32
e32r32g32r32>c32r32c32r16^32<b32r16^32>c32r16^32<a32r16^32f32r32g32r32d32r8^32
g32r8^32e32r8^32c32r8^16^32f32r32a+32r16^32f32r32f32r16^32
e32r32g32r32>c32r32c32r16^32<b32r16^32>c32r16^32<a32r16^32f32r32g32r32d32r8^32
>c32r32<g32r16^32e32r8^32g+32r16^32f32r16^32>c32r32<f32r4^32
g32r16^32>f32r32f32r32f32r32d32r16^32<b32r32>c32r16<g32r16f32r32e32r8^16^32
>c32r32<g32r16^32e32r8^32g+32r16^32f32r16^32>c32r32<f32r4^32
g32r16>c32r16c32r32c32r16c32r16<b32r32g32r16^32e32r16^32c32r8^16^32
>c32r32<g32r16^32e32r8^32g+32r16^32f32r16^32>c32r32<f32r4^32
g32r16^32>f32r32f32r32f32r32d32r16^32<b32r32>c32r16<g32r16f32r32e32r8^16^32
>c32r32<g32r16^32e32r8^32g+32r16^32f32r16^32>c32r32<f32r4^32
g32r16>c32r16c32r32c32r16c32r16<b32r32g32r16^32e32r16^32c32r8^16^32
g+32r32>c32r16^32<g+32r16^32g+32r32a+32r16^32>c32r32<g32r16^32e32r32c32r8^16^32
g+32r32>c32r16^32<g+32r16^32g+32r32a+32r32>c32r2^32
<g+32r32>c32r16^32<g+32r16^32g+32r32a+32r16^32>c32r32<g32r16^32e32r32c32r8^16^32
f+32r32f+32r16^32f+32r16^32f+32r32f+32r16^32f32r8^16^32o2g32r8^16^32
o5c32r32<g32r16^32e32r8^32g+32r16^32f32r16^32>c32r32<f32r4^32
g32r16^32>f32r32f32r32f32r32d32r16^32<b32r32>c32r16<g32r16f32r32e32r8^16^32
>c32r32<g32r16^32e32r8^32g+32r16^32f32r16^32>c32r32<f32r4^32
g32r16>c32r16c32r32c32r16c32r16<b32r32g32r16^32e32r16^32c32;
#1 @3 v220 y10
o2d16d16r16d16r16d16d16r16>g16r8^16<g4
g8r16e8r16c8r8f16g16r16a16f16r16
e16>c16e16f16r16d16r16e16r16c16r16<a16b16g16r8
g8r16e8r16c8r8f16g16r16a16f16r16
e16>c16e16f16r16d16r16e16r16c16r16<a16b16g16r8
c8^16g8>c8<f4^16>c16c16<f8
c8^16e8g8>c16r4^8<g8
c8^16g8>c8<f4^16>c16c16<f8
r8g+8^16a+8^16>c8r16<g16g8c8
c8^16g8>c8<f4^16>c16c16<f8
c8^16e8g8>c16r4^8<g8
c8^16g8>c8<f4^16>c16c16<f8
r8g+8^16a+8^16>c8r16<g16g8c8
<g+8^16>d+8^16g+8g8^16c8^16<g8
g+8^16>d+8^16g+8g8^16c8^16<g8
g+8^16>d+8^16g+8g8^16c8^16<g8
>d16d16r16d16r16d16d16r16>g16r8^16<g4
g8r16e8r16c8r8f16g16r16a16f16r16
e16>c16e16f16r16d16r16e16r16c16r16<a16b16g16r8
g8r16e8r16c8r8f16g16r16a16f16r16
e16>c16e16f16r16d16r16e16r16c16r16<a16b16g16r8
c8^16g8^16>c8<f8^16>c16c16c16<f8
g8^16b8^16g8>c8^16<g16g16r16c8
c8^16g8^16>c8<f8^16>c16c16c16<f8
g8^16b8^16g8>c16r16<g16r16c16r8^16
c8^16g8^16>c8<f8^16>c16c16c16<f8
g8^16b8^16g8>c8^16<g16g16r16c8
c8^16g8^16>c8<f8^16>c16c16c16<f8
g8^16b8^16g8>c16r16<g16r16c16r8^16
<g+8^16>d+8^16g+8g8^16c8^16<g8
g+8^16>d+8^16g+8g8^16c8^16<g8
g+8^16>d+8^16g+8g8^16c8^16<g8
>d16d16r16d16r16d16d16r16>g16r8^16<g4
c8^16g8^16>c8<f8^16>c16c16c16<f8
g8^16b8^16g8>c8^16<g16g16r16c8
c8^16g8^16>c8<f8^16>c16c16c16<f8
g8^16b8^16g8>c16r16<g16r16c16;

#2 @13 v220 y10
a32r32a32r16^32a32r16^32a32r32>d32r16^32<g32r8^16^32b32r4^16^32
g32r32g32r8^32g32r32g32r8^32f32r32a+32r8^32f32r8^16^32
e32r32g32r8^32g32r16^32g32r16^32g32r16^32f32r16^32d32r8^16^32
g32r32g32r8^32g32r32g32r8^32f32r32a+32r8^32f32r8^16^32
e32r32g32r8^32g32r16^32g32r16^32g32r16^32f32r16^32d32r8^16^32
e32r32e32r32e32r32e32r32e32r32a32r16^32a32r16^32a32r32f32r16^32a32r32f32r8^32
g32r32g32r32g32r32g32r32g32r32f32r16^32>c32r16^32<g32r32g32r4^16^32
e32r32e32r32e32r32e32r32e32r32a32r16^32a32r16^32a32r32f32r16^32a32r32f32r8^32
d+32r8^16^32f32r16^32g32r2^16^32
e32r32e32r32e32r32e32r32e32r32a32r16^32a32r16^32a32r32f32r16^32a32r32f32r8^32
g32r32g32r32g32r32g32r32g32r32f32r16^32>c32r16^32c32r32<g32r4^16^32
e32r32e32r32e32r32e32r32e32r32a32r16^32a32r16^32a32r32f32r16^32a32r32f32r8^32
d+32r8^16^32f32r16^32g32r2^16^32
g+32r32d+32r8^32f32r8^16^32g32r32g32r8^32g32r8^16^32
g+32r32d+32r8^32f32r8^16^32g32r32g32r8^32f32r32a+32r8^32
g+32r32d+32r8^32f32r8^16^32g32r32g32r8^32g32r16^32
a32r32a32r16^32a32r16^32a32r32>d32r16^32<g32r8^16^32b32r4^16^32
g32r32g32r8^32g32r32g32r8^32f32r32a+32r8^32f32r8^16^32
e32r32g32r8^32g32r16^32g32r16^32g32r16^32f32r16^32d32r8^16^32
g32r32g32r8^32g32r32g32r8^32f32r32a+32r8^32f32r8^16^32
e32r32g32r8^32g32r16^32g32r16^32g32r16^32f32r16^32d32r16^32
c32r32e32r16^32g32r8^32g32r16^32f32r32a32r16^32>c32r8^32c32r16^32
<b32r32b32r32b32r32a32r8^32b32r16^32>c32r8^16a32e32r16^32<g32r16^32
c32r32e32r16^32g32r8^32g32r16^32f32r32a32r16^32>c32r4^32
<g32r16^32>f32r32c32r32c32r16^32d32r32<g32r32g32r16^32e32r16^32c32r8^16^32
c32r32e32r16^32g32r8^32g32r16^32f32r32a32r16^32>c32r8^32c32r16^32
<b32r32b32r32b32r32a32r8^32b32r16^32>c32r8^16a32e32r16^32<g32r16^32
c32r32e32r16^32g32r8^32g32r16^32f32r32a32r16^32>c32r4^32
<g32r16^32>f32r32c32r32c32r16^32d32r32<g32r32g32r16^32e32r16^32c32r4^16^32
g+32r32d+32r8^32f32r8^16^32g32r32g32r8^32g32r8^16^32
g+32r32d+32r8^32f32r8^16^32g32r32g32r8^32f32r32a+32r8^32
g+32r32d+32r8^32f32r8^16^32g32r32g32r8^32g32r16^32
a32r32a32r16^32a32r16^32a32r32>d32r16^32<g32r8^16^32b32r8^16^32
c32r32e32r16^32g32r8^32g32r16^32f32r32a32r16^32>c32r8^32c32r16^32
<b32r32b32r32b32r32a32r8^32b32r16^32>c32r8^16a32e32r16^32<g32r16^32
c32r32e32r16^32g32r8^32g32r16^32f32r32a32r16^32>c32r4^32
<g32r16^32>f32r32c32r32c32r16^32d32r32<g32r32g32r16^32e32r16^32c32;

#3 t50 ;bass line (hey, I'm not using the harpsichord here!)

o2 @8 l16

(1)[e-8^gr8b-r>c8^<b-r8gra-8^>cr8e-rf8^e-r8cr<b-8^>dr8frg8^fr8dr]
e-8^d8^c8<rb-rb->c8<b-r
(1)
e-8e-a-8a-gfe-8^e-r4
>(2)[e-8^d8^c8<rb-rb->c8<b-8>c+8^c8^<b-8ra-ra-b-8a-8>]3
(3)[<b8^b-8^a-8f+8^b-8^>c+8c8^<a8^f8rb-rb->c8<b-r]
[>e-8^e-8^e-8^d8c<b-8b-r]2 a-8^>cr8e-rf8^e-r8cr<b-8^>dr8frg8^fr8dr
(2)3
(3)



#4 ;percussion (phew... we're done!)

o3 l16
[@21c8@22c@22c]28 @21c8@22c@10g8@22c@10g8@21c@21c@21c8@10g4
[@21c8@22c@22c@10g8@22c@22c]40